<svg width="150" height="150" viewBox="0 0 150 150" fill="none" xmlns="http://www.w3.org/2000/svg">
<g clip-path="url(#clip0_3_2)">
<g clip-path="url(#clip1_3_2)">
<path d="M-7.46268 -7.46213L7.5912 7.59175" stroke="white" stroke-opacity="0.33" stroke-width="0.6" stroke-linecap="round" stroke-linejoin="round"/>
<path d="M-11.1586 1.87897C-7.48462 2.86372 -3.5658 1.81314 -0.876603 -0.876055C1.81259 -3.56525 2.86317 -7.48407 1.87842 -11.158" stroke="white" stroke-opacity="0.33" stroke-width="0.6" stroke-linecap="round" stroke-linejoin="round"/>
<path d="M11.2871 -1.74934C7.61402 -2.73321 3.69433 -1.68352 1.00513 1.00568C-1.68406 3.69487 -2.73376 7.61457 -1.74989 11.2876" stroke="white" stroke-opacity="0.33" stroke-width="0.6" stroke-linecap="round" stroke-linejoin="round"/>
</g>
<g clip-path="url(#clip2_3_2)">
<path d="M142.537 142.538L157.591 157.592" stroke="white" stroke-opacity="0.33" stroke-width="0.6" stroke-linecap="round" stroke-linejoin="round"/>
<path d="M138.841 151.879C142.515 152.864 146.434 151.813 149.123 149.124C151.813 146.435 152.863 142.516 151.878 138.842" stroke="white" stroke-opacity="0.33" stroke-width="0.6" stroke-linecap="round" stroke-linejoin="round"/>
<path d="M161.287 148.251C157.614 147.267 153.694 148.316 151.005 151.006C148.316 153.695 147.266 157.615 148.25 161.288" stroke="white" stroke-opacity="0.33" stroke-width="0.6" stroke-linecap="round" stroke-linejoin="round"/>
</g>
<g clip-path="url(#clip3_3_2)">
<path d="M64.8031 155.309L67.3124 152.799L79.857 160.327L72.33 147.782L77.3477 142.764C78.7335 141.378 78.7344 139.132 77.3486 137.746C76.908 137.306 76.3594 136.989 75.7573 136.827C74.5339 136.499 73.227 136.849 72.33 137.746C70.9451 139.131 70.9451 141.378 72.3309 142.764C72.7715 143.205 73.32 143.521 73.9212 143.682L85.7936 146.864C86.3956 147.025 86.9442 147.342 87.3839 147.782C88.7697 149.168 88.7697 151.414 87.3839 152.8C85.9989 154.185 83.7521 154.185 82.3662 152.799" stroke="white" stroke-opacity="0.33" stroke-width="0.6" stroke-linecap="round" stroke-linejoin="round"/>
</g>
<g clip-path="url(#clip4_3_2)">
<path d="M-7.23603 80.6131C-8.64733 80.6131 -10.0016 80.0523 -10.9995 79.0544C-11.9974 78.0565 -12.5582 76.7022 -12.5582 75.2909C-12.5582 73.8796 -11.9974 72.5254 -10.9995 71.5275C-8.92116 69.4491 -5.55089 69.4491 -3.47256 71.5275L7.81785 82.8179" stroke="white" stroke-opacity="0.33" stroke-width="0.6" stroke-linecap="round" stroke-linejoin="round"/>
<path d="M-3.47256 71.5275C-5.55089 69.4491 -5.55089 66.0789 -3.47256 64.0005C-2.47464 63.0026 -1.12039 62.4418 0.290912 62.4418C1.70221 62.4418 3.05647 63.0026 4.05438 64.0005C5.0523 64.9984 5.61313 66.3527 5.61313 67.764" stroke="white" stroke-opacity="0.33" stroke-width="0.6" stroke-linecap="round" stroke-linejoin="round"/>
</g>
<g clip-path="url(#clip5_3_2)">
<path d="M142.764 80.6131C141.353 80.6131 139.998 80.0523 139.001 79.0544C138.003 78.0565 137.442 76.7022 137.442 75.2909C137.442 73.8796 138.003 72.5254 139.001 71.5275C141.079 69.4491 144.449 69.4491 146.527 71.5275L157.818 82.8179" stroke="white" stroke-opacity="0.33" stroke-width="0.6" stroke-linecap="round" stroke-linejoin="round"/>
<path d="M146.527 71.5275C144.449 69.4491 144.449 66.0789 146.527 64.0005C147.525 63.0026 148.88 62.4418 150.291 62.4418C151.702 62.4418 153.056 63.0026 154.054 64.0005C155.052 64.9984 155.613 66.3527 155.613 67.764" stroke="white" stroke-opacity="0.33" stroke-width="0.6" stroke-linecap="round" stroke-linejoin="round"/>
</g>
<g clip-path="url(#clip6_3_2)">
<path d="M64.8031 5.30859L67.3124 2.79932L79.857 10.3271L72.33 -2.21835L77.3477 -7.23601C78.7335 -8.62186 78.7344 -10.8678 77.3486 -12.2537C76.908 -12.6943 76.3594 -13.0111 75.7573 -13.1726C74.5339 -13.5009 73.227 -13.1507 72.33 -12.2537C70.9451 -10.8687 70.9451 -8.62186 72.3309 -7.23601C72.7715 -6.79542 73.32 -6.47858 73.9212 -6.31796L85.7936 -3.13639C86.3956 -2.9749 86.9442 -2.65806 87.3839 -2.21835C88.7697 -0.832497 88.7697 1.41435 87.3839 2.8002C85.9989 4.18517 83.7521 4.18517 82.3662 2.79932" stroke="white" stroke-opacity="0.33" stroke-width="0.6" stroke-linecap="round" stroke-linejoin="round"/>
</g>
<g clip-path="url(#clip7_3_2)">
<path d="M141.537 -7.46213L156.591 7.59175" stroke="white" stroke-opacity="0.33" stroke-width="0.6" stroke-linecap="round" stroke-linejoin="round"/>
<path d="M137.841 1.87897C141.515 2.86372 145.434 1.81314 148.123 -0.876055C150.813 -3.56525 151.863 -7.48407 150.878 -11.158" stroke="white" stroke-opacity="0.33" stroke-width="0.6" stroke-linecap="round" stroke-linejoin="round"/>
<path d="M160.287 -1.74934C156.614 -2.73321 152.694 -1.68352 150.005 1.00568C147.316 3.69487 146.266 7.61457 147.25 11.2876" stroke="white" stroke-opacity="0.33" stroke-width="0.6" stroke-linecap="round" stroke-linejoin="round"/>
</g>
<g clip-path="url(#clip8_3_2)">
<path d="M-7.46268 142.538L7.59119 157.592" stroke="white" stroke-opacity="0.33" stroke-width="0.6" stroke-linecap="round" stroke-linejoin="round"/>
<path d="M-11.1586 151.879C-7.48462 152.864 -3.56581 151.813 -0.87661 149.124C1.81259 146.435 2.86316 142.516 1.87841 138.842" stroke="white" stroke-opacity="0.33" stroke-width="0.6" stroke-linecap="round" stroke-linejoin="round"/>
<path d="M11.2871 148.251C7.61401 147.267 3.69432 148.316 1.00512 151.006C-1.68407 153.695 -2.73377 157.615 -1.7499 161.288" stroke="white" stroke-opacity="0.33" stroke-width="0.6" stroke-linecap="round" stroke-linejoin="round"/>
</g>
<path d="M80.7061 64.6469H86.1226V70.0634" stroke="white" stroke-opacity="0.33" stroke-width="0.6" stroke-linecap="round" stroke-linejoin="round"/>
<path d="M64.4565 86.313L86.1227 64.6469" stroke="white" stroke-opacity="0.33" stroke-width="0.6" stroke-linecap="round" stroke-linejoin="round"/>
<path d="M69.8731 70.0634L80.7061 80.8965" stroke="white" stroke-opacity="0.33" stroke-width="0.6" stroke-linecap="round" stroke-linejoin="round"/>
</g>
<defs>
<clipPath id="clip0_3_2">
<rect width="150" height="150" fill="white"/>
</clipPath>
<clipPath id="clip1_3_2">
<rect width="25.5479" height="25.5479" fill="white" transform="translate(0.0651016 -18) rotate(45)"/>
</clipPath>
<clipPath id="clip2_3_2">
<rect width="25.5479" height="25.5479" fill="white" transform="translate(150.065 132) rotate(45)"/>
</clipPath>
<clipPath id="clip3_3_2">
<rect width="25.5479" height="25.5479" fill="white" transform="translate(57 150.065) rotate(-45)"/>
</clipPath>
<clipPath id="clip4_3_2">
<rect width="25.5479" height="25.5479" fill="white" transform="translate(-18 75.0651) rotate(-45)"/>
</clipPath>
<clipPath id="clip5_3_2">
<rect width="25.5479" height="25.5479" fill="white" transform="translate(132 75.0651) rotate(-45)"/>
</clipPath>
<clipPath id="clip6_3_2">
<rect width="25.5479" height="25.5479" fill="white" transform="translate(57 0.0651093) rotate(-45)"/>
</clipPath>
<clipPath id="clip7_3_2">
<rect width="25.5479" height="25.5479" fill="white" transform="translate(149.065 -18) rotate(45)"/>
</clipPath>
<clipPath id="clip8_3_2">
<rect width="25.5479" height="25.5479" fill="white" transform="translate(0.065094 132) rotate(45)"/>
</clipPath>
</defs>
</svg>
